<svg width="72" height="95" viewBox="0 0 72 95" fill="none" xmlns="http://www.w3.org/2000/svg">
<path d="M34.0331 93.6106C33.5593 93.3647 33.1493 93.0127 32.8347 92.5824L31.6532 90.2195L31.53 90.712C27.2315 84.4936 23.5191 79.203 20.3155 74.6375C14.015 65.6585 9.6823 59.4839 6.72872 54.5714C4.44141 50.767 3.01904 47.7781 2.16188 44.8832C1.30699 41.996 1 39.1537 1 35.625C1 16.5004 16.5004 1 35.625 1C54.7496 1 70.25 16.5004 70.25 35.625C70.25 39.1537 69.943 41.9954 69.0881 44.8818C68.231 47.7758 66.8087 50.7634 64.5214 54.5663C61.5704 59.4726 57.2426 65.6384 50.9511 74.6022C47.4358 79.6105 43.3074 85.4923 38.4636 92.5159C38.1462 92.9723 37.7234 93.3454 37.2311 93.6036C36.738 93.8622 36.1897 93.9979 35.6329 93.9991C35.0761 94.0003 34.5273 93.867 34.0331 93.6106ZM35.625 51.4688C39.827 51.4688 43.8569 49.7995 46.8282 46.8282C49.7995 43.8569 51.4688 39.827 51.4688 35.625C51.4688 31.423 49.7995 27.3931 46.8282 24.4218C43.8569 21.4505 39.827 19.7812 35.625 19.7812C31.423 19.7812 27.3931 21.4505 24.4218 24.4218C21.4505 27.3931 19.7812 31.423 19.7812 35.625C19.7812 39.827 21.4505 43.8569 24.4218 46.8282C27.3931 49.7995 31.423 51.4688 35.625 51.4688Z" fill="#FFF44F" stroke="#171516" stroke-width="2"/>
</svg>
